<svg width="205" height="18" viewBox="0 0 205 18" fill="none" xmlns="http://www.w3.org/2000/svg">
<path d="M124.986 13.9999V5.51373H127.544V7.04964H127.632C127.783 6.5082 128.034 6.09752 128.384 5.81759C128.734 5.53767 129.146 5.39771 129.621 5.39771C129.861 5.39771 130.111 5.42717 130.373 5.4861V7.78997C130.255 7.74945 130.094 7.7163 129.892 7.69052C129.689 7.66474 129.501 7.65185 129.328 7.65185C129.004 7.65185 128.711 7.72367 128.45 7.86732C128.192 8.00728 127.99 8.20802 127.842 8.46953C127.695 8.72736 127.621 9.02201 127.621 9.35351V13.9999H124.986Z" fill="black"/>
<path d="M123.624 10.4033H117.944V10.4586C117.944 10.8158 118.014 11.1308 118.154 11.4033C118.294 11.6722 118.493 11.8803 118.751 12.0276C119.012 12.175 119.318 12.2486 119.668 12.2486C120.025 12.2486 120.333 12.1768 120.59 12.0332C120.848 11.8895 121.031 11.6925 121.137 11.442H123.59C123.484 11.9945 123.255 12.4751 122.905 12.884C122.559 13.2891 122.106 13.6041 121.546 13.8287C120.986 14.0497 120.344 14.1602 119.618 14.1602C118.741 14.1602 117.981 13.9853 117.336 13.6354C116.695 13.2818 116.202 12.7772 115.856 12.1216C115.513 11.4659 115.342 10.6888 115.342 9.79006C115.342 8.92082 115.513 8.1547 115.856 7.49172C116.202 6.82873 116.692 6.31492 117.325 5.95028C117.959 5.58564 118.695 5.40332 119.535 5.40332C120.334 5.40332 121.042 5.57091 121.657 5.90608C122.275 6.23757 122.758 6.72929 123.104 7.38122C123.45 8.02947 123.624 8.81216 123.624 9.72929V10.4033ZM119.59 7.31492C119.285 7.31492 119.008 7.38306 118.762 7.51934C118.519 7.65194 118.323 7.8361 118.176 8.07183C118.032 8.30387 117.955 8.56354 117.944 8.85083H121.165C121.161 8.55617 121.091 8.29282 120.955 8.06078C120.822 7.82505 120.636 7.64273 120.397 7.51382C120.158 7.38122 119.889 7.31492 119.59 7.31492Z" fill="black"/>
<path d="M106.953 14.0001H104.135L101.903 5.51392H104.555L105.732 11.0001H105.803L107.058 5.51392H109.649L110.93 10.9614H111.002L112.146 5.51392H114.798L112.566 14.0001H109.754L108.4 8.978H108.301L106.953 14.0001Z" fill="black"/>
<path d="M97.0969 14.1602C96.224 14.1602 95.4652 13.9779 94.8206 13.6133C94.1798 13.2486 93.6862 12.7367 93.34 12.0774C92.9974 11.4181 92.8262 10.6538 92.8262 9.78454C92.8262 8.91529 92.9974 8.15102 93.34 7.49172C93.6862 6.82873 94.1798 6.31492 94.8206 5.95028C95.4652 5.58564 96.224 5.40332 97.0969 5.40332C97.9698 5.40332 98.7267 5.58564 99.3676 5.95028C100.012 6.31492 100.506 6.82873 100.848 7.49172C101.191 8.15102 101.362 8.91529 101.362 9.78454C101.362 10.6538 101.191 11.4181 100.848 12.0774C100.506 12.7367 100.012 13.2486 99.3676 13.6133C98.7267 13.9779 97.9698 14.1602 97.0969 14.1602ZM97.1135 12.1658C97.4413 12.1658 97.7212 12.0663 97.9532 11.8674C98.189 11.6648 98.3676 11.3831 98.4892 11.0221C98.6144 10.6611 98.677 10.2431 98.677 9.76796C98.677 9.29282 98.6144 8.87478 98.4892 8.51382C98.3676 8.14918 98.189 7.86741 97.9532 7.66851C97.7212 7.46594 97.4413 7.36465 97.1135 7.36465C96.7746 7.36465 96.4836 7.46594 96.2405 7.66851C96.0011 7.86741 95.8188 8.14918 95.6936 8.51382C95.572 8.87478 95.5113 9.29282 95.5113 9.76796C95.5113 10.2431 95.572 10.6611 95.6936 11.0221C95.8188 11.3831 96.0011 11.6648 96.2405 11.8674C96.4836 12.0663 96.7746 12.1658 97.1135 12.1658Z" fill="black"/>
<path d="M88.8296 2.68506H91.465V14H88.8296V2.68506Z" fill="black"/>
<path d="M78.5752 14V2.68506H83.2548C84.0798 2.68506 84.7796 2.80476 85.3542 3.04417C85.9325 3.2799 86.3671 3.61324 86.6581 4.04417C86.949 4.47511 87.0945 4.97972 87.0945 5.55799C87.0945 5.98156 87.0043 6.36278 86.8238 6.70163C86.647 7.04049 86.4002 7.32042 86.0835 7.54141C85.7667 7.76241 85.4021 7.9171 84.9896 8.0055V8.116C85.4463 8.13441 85.868 8.2578 86.2548 8.48616C86.6452 8.71452 86.9564 9.03313 87.1885 9.44197C87.4205 9.84712 87.5365 10.3149 87.5365 10.8453C87.5365 11.4567 87.3818 12.0018 87.0724 12.4806C86.763 12.9558 86.3118 13.3278 85.7188 13.5967C85.1258 13.8655 84.4205 14 83.6028 14H78.5752ZM82.8072 7.35357C83.1129 7.35357 83.3837 7.302 83.6194 7.19887C83.8588 7.09574 84.0448 6.94657 84.1774 6.75136C84.31 6.55615 84.3763 6.32594 84.3763 6.06075C84.3763 5.80661 84.3137 5.58561 84.1885 5.39777C84.0669 5.20624 83.8901 5.06075 83.6581 4.9613C83.4297 4.85817 83.1608 4.80661 82.8514 4.80661H81.2382V7.35357H82.8072ZM82.984 11.8398C83.577 11.8398 84.019 11.7274 84.31 11.5027C84.6047 11.2781 84.752 10.9576 84.752 10.5414C84.752 10.2468 84.682 9.99077 84.542 9.77346C84.4058 9.55615 84.2069 9.38856 83.9454 9.27069C83.6875 9.14915 83.3837 9.08837 83.0338 9.08837H81.2382V11.8398H82.984Z" fill="black"/>
<path d="M60.7158 14V2.68506H64.0142L66.9368 9.80661H67.0694L69.9865 2.68506H73.2904V14H70.6937V6.96683H70.5998L67.8374 13.9337H66.1633L63.4009 6.93368H63.307V14H60.7158Z" fill="black"/>
<path d="M54.3476 14H51.6846V2.68506H59.3586V4.86185H54.3476V7.25412H58.8669V9.42539H54.3476V14Z" fill="black"/>
<path d="M43.5194 14H40.8564V2.68506H43.5194V7.50826H43.6686L47.4752 2.68506H50.6299L46.5802 7.74031L50.6962 14H47.5029L44.6355 9.51379L43.5194 10.9061V14Z" fill="black"/>
<path d="M199.354 14.0001V5.51388H201.597V6.98902H201.685C201.836 6.47705 202.092 6.08294 202.453 5.8067C202.818 5.53046 203.243 5.39233 203.729 5.39233C203.969 5.39233 204.216 5.41628 204.47 5.46416V7.53045C204.359 7.49731 204.206 7.46784 204.011 7.44206C203.816 7.41627 203.639 7.40338 203.481 7.40338C203.135 7.40338 202.823 7.47889 202.547 7.6299C202.275 7.78092 202.059 7.99086 201.901 8.25974C201.746 8.52861 201.669 8.83432 201.669 9.17686V14.0001H199.354Z" fill="black" fill-opacity="0.36"/>
<path d="M197.907 10.3536H192.105C192.105 10.7772 192.185 11.1455 192.343 11.4586C192.505 11.7716 192.732 12.0129 193.023 12.1823C193.317 12.3481 193.662 12.4309 194.056 12.4309C194.442 12.4309 194.774 12.3554 195.05 12.2044C195.33 12.0497 195.529 11.8435 195.647 11.5856H197.846C197.735 12.1087 197.511 12.5635 197.172 12.9503C196.833 13.337 196.395 13.6372 195.857 13.8508C195.319 14.0608 194.706 14.1658 194.017 14.1658C193.159 14.1658 192.413 13.989 191.779 13.6354C191.15 13.2818 190.665 12.7772 190.326 12.1216C189.988 11.4623 189.818 10.6869 189.818 9.79559C189.818 8.93002 189.988 8.16575 190.326 7.50277C190.665 6.8361 191.144 6.32045 191.763 5.95581C192.385 5.58748 193.105 5.40332 193.923 5.40332C194.682 5.40332 195.361 5.56538 195.962 5.88951C196.566 6.20995 197.041 6.69245 197.387 7.33702C197.733 7.98159 197.907 8.77164 197.907 9.70719V10.3536ZM195.724 8.90608C195.721 8.56722 195.643 8.26336 195.492 7.99448C195.345 7.7256 195.139 7.51566 194.873 7.36465C194.608 7.20995 194.306 7.1326 193.967 7.1326C193.621 7.1326 193.31 7.21179 193.034 7.37017C192.757 7.52855 192.538 7.74402 192.376 8.01658C192.214 8.28546 192.124 8.58196 192.105 8.90608H195.724Z" fill="black" fill-opacity="0.36"/>
<path d="M184.244 17.3591C183.474 17.3591 182.802 17.2486 182.227 17.0276C181.656 16.8103 181.207 16.5009 180.879 16.0995C180.555 15.7017 180.371 15.2339 180.327 14.6961H182.609C182.671 15.0276 182.848 15.2744 183.139 15.4365C183.434 15.6022 183.819 15.6851 184.294 15.6851C184.861 15.6851 185.301 15.5543 185.614 15.2928C185.931 15.0313 186.089 14.6188 186.089 14.0553V12.4917H185.99C185.809 12.8858 185.516 13.2155 185.111 13.4807C184.71 13.7459 184.194 13.8785 183.564 13.8785C182.909 13.8785 182.319 13.7238 181.796 13.4144C181.277 13.105 180.866 12.6372 180.564 12.0111C180.262 11.3849 180.111 10.6169 180.111 9.70719C180.111 8.78269 180.264 7.99816 180.57 7.3536C180.879 6.70535 181.294 6.21916 181.813 5.89503C182.336 5.56722 182.918 5.40332 183.559 5.40332C184.203 5.40332 184.719 5.55249 185.106 5.85083C185.496 6.14918 185.789 6.51198 185.984 6.93923H186.078V5.51382H188.365V14.0884C188.365 14.7956 188.192 15.3941 187.846 15.884C187.5 16.3739 187.017 16.7422 186.399 16.989C185.78 17.2357 185.062 17.3591 184.244 17.3591ZM184.288 12.1381C184.667 12.1381 184.992 12.0424 185.261 11.8508C185.533 11.6593 185.739 11.3831 185.879 11.0221C186.023 10.6611 186.095 10.2302 186.095 9.72929C186.095 9.22837 186.023 8.7919 185.879 8.4199C185.739 8.04789 185.533 7.76059 185.261 7.55802C184.992 7.35544 184.667 7.25415 184.288 7.25415C183.901 7.25415 183.572 7.35728 183.299 7.56354C183.027 7.7698 182.82 8.06078 182.68 8.43647C182.544 8.80848 182.476 9.23942 182.476 9.72929C182.476 10.2228 182.546 10.6501 182.686 11.0111C182.826 11.372 183.03 11.6501 183.299 11.8453C183.572 12.0405 183.901 12.1381 184.288 12.1381Z" fill="black" fill-opacity="0.36"/>
<path d="M175.079 5.40332C175.727 5.40332 176.322 5.50461 176.863 5.70719C177.409 5.90977 177.847 6.22652 178.178 6.65746C178.51 7.0884 178.676 7.62984 178.676 8.28177V14H176.482V12.8232H176.416C176.202 13.2357 175.886 13.5617 175.466 13.8011C175.049 14.0405 174.539 14.1602 173.935 14.1602C173.386 14.1602 172.898 14.0645 172.471 13.8729C172.048 13.6814 171.714 13.396 171.471 13.0166C171.232 12.6335 171.112 12.1713 171.112 11.6298C171.112 10.7532 171.405 10.1123 171.991 9.70719C172.576 9.30203 173.335 9.06999 174.267 9.01105C174.539 8.99264 174.893 8.97422 175.328 8.95581C175.762 8.93371 176.11 8.91897 176.372 8.91161V8.22652C176.368 7.86557 176.248 7.58748 176.013 7.39227C175.781 7.19706 175.451 7.09945 175.024 7.09945C174.63 7.09945 174.311 7.18233 174.068 7.34807C173.825 7.51382 173.67 7.74402 173.604 8.03868H171.41C171.455 7.53776 171.626 7.0884 171.924 6.69061C172.226 6.29282 172.644 5.97975 173.178 5.75139C173.716 5.51934 174.35 5.40332 175.079 5.40332ZM174.593 12.5525C174.939 12.5525 175.248 12.4844 175.521 12.3481C175.793 12.2081 176.005 12.0166 176.156 11.7735C176.307 11.5304 176.383 11.2615 176.383 10.9669V10.3481C175.58 10.3886 175 10.4254 174.642 10.4586C174.234 10.4917 173.911 10.6041 173.676 10.7956C173.444 10.9834 173.328 11.2376 173.328 11.558C173.328 11.8785 173.442 12.1252 173.67 12.2983C173.902 12.4678 174.21 12.5525 174.593 12.5525Z" fill="black" fill-opacity="0.36"/>
<path d="M164.262 14H161.948V5.51382H164.152V7.00553H164.251C164.447 6.50461 164.765 6.11234 165.207 5.82873C165.649 5.54513 166.181 5.40332 166.804 5.40332C167.389 5.40332 167.901 5.53223 168.34 5.79006C168.782 6.04789 169.122 6.41805 169.362 6.90056C169.605 7.37938 169.727 7.94476 169.727 8.59669V14H167.412V9.00001C167.415 8.47699 167.283 8.06815 167.014 7.77349C166.745 7.47514 166.371 7.32597 165.892 7.32597C165.568 7.32597 165.283 7.39595 165.036 7.53592C164.793 7.67588 164.603 7.87846 164.467 8.14365C164.331 8.40885 164.262 8.72376 164.262 9.0884V14Z" fill="black" fill-opacity="0.36"/>
<path d="M156.595 5.40332C157.243 5.40332 157.838 5.50461 158.379 5.70719C158.924 5.90977 159.362 6.22652 159.694 6.65746C160.025 7.0884 160.191 7.62984 160.191 8.28177V14H157.998V12.8232H157.932C157.718 13.2357 157.401 13.5617 156.981 13.8011C156.565 14.0405 156.055 14.1602 155.451 14.1602C154.902 14.1602 154.414 14.0645 153.987 13.8729C153.563 13.6814 153.23 13.396 152.987 13.0166C152.747 12.6335 152.628 12.1713 152.628 11.6298C152.628 10.7532 152.921 10.1123 153.506 9.70719C154.092 9.30203 154.851 9.06999 155.782 9.01105C156.055 8.99264 156.409 8.97422 156.843 8.95581C157.278 8.93371 157.626 8.91897 157.887 8.91161V8.22652C157.884 7.86557 157.764 7.58748 157.528 7.39227C157.296 7.19706 156.967 7.09945 156.539 7.09945C156.145 7.09945 155.827 7.18233 155.583 7.34807C155.34 7.51382 155.186 7.74402 155.119 8.03868H152.926C152.97 7.53776 153.141 7.0884 153.44 6.69061C153.742 6.29282 154.16 5.97975 154.694 5.75139C155.232 5.51934 155.865 5.40332 156.595 5.40332ZM156.108 12.5525C156.455 12.5525 156.764 12.4844 157.037 12.3481C157.309 12.2081 157.521 12.0166 157.672 11.7735C157.823 11.5304 157.898 11.2615 157.898 10.9669V10.3481C157.095 10.3886 156.515 10.4254 156.158 10.4586C155.749 10.4917 155.427 10.6041 155.191 10.7956C154.959 10.9834 154.843 11.2376 154.843 11.558C154.843 11.8785 154.957 12.1252 155.186 12.2983C155.418 12.4678 155.725 12.5525 156.108 12.5525Z" fill="black" fill-opacity="0.36"/>
<path d="M138.956 14V2.68506H141.851L144.994 10.3536H145.127L148.271 2.68506H151.171V14H148.89V6.59114H148.796L145.845 13.9503H144.276L141.326 6.56351H141.232V14H138.956Z" fill="black" fill-opacity="0.36"/>
<circle cx="9" cy="9" r="9" fill="url(#paint0_linear_176_58)"/>
<circle cx="19" cy="9" r="9" fill="#F3F3F3"/>
<defs>
<linearGradient id="paint0_linear_176_58" x1="23.4" y1="24.3" x2="6.3" y2="3.15" gradientUnits="userSpaceOnUse">
<stop stop-color="#25BE5B"/>
<stop offset="1" stop-color="#74DC1E"/>
</linearGradient>
</defs>
</svg>
